<?xml version="1.0"?><svg width="639.13" height="441.59" xmlns="http://www.w3.org/2000/svg">

 <metadata id="metadata9845">image/svg+xml</metadata>
 <g>
  <title>Layer 1</title>
  <g id="layer1">
   <g transform="matrix(5.5071171,0,0,5.5071171,-1052.0016,-2439.6705) " id="g9835">
    <path fill="#007f00" fill-rule="evenodd" stroke="#000000" stroke-width="1.379959" stroke-linejoin="round" d="m212.86264,474.135315c0.17337,-0.77179 -1.183258,10.409851 -0.923248,7.987183c1.71907,-9.497864 0.997467,-19.791321 4.823654,-28.826538c0.95343,-1.993896 2.166901,-3.25885 3.727066,-3.173096c22.188995,0.686096 45.071411,-22.297241 61.713135,28.814941c51.312103,24.012512 3.567902,43.308228 -37.053864,41.593079c-40.139816,-1.680481 -74.411179,-30.615906 -32.286743,-46.395569z" id="path575"/>
    <path fill="#ffffff" fill-rule="evenodd" stroke="#000000" stroke-width="1.18998" d="m211.82254,480.996033c25.656021,16.122681 67.953796,6.174683 69.687317,-1.715149c2.426941,2.744263 0,10.291077 0,10.291077c-11.094482,14.407471 -64.833496,11.320129 -70.727448,1.029114c-0.69339,-2.744324 0.69342,-8.575928 1.040131,-9.605042z" id="path576"/>
    <path fill="#ffffff" fill-opacity="0.316667" fill-rule="evenodd" stroke="#000000" stroke-width="0.44703722pt" d="m216.875824,483.965881c4.160446,2.058228 16.095596,5.159668 20.949448,5.502686c3.467041,2.401245 1.733521,6.621033 0.34671,9.365356c-9.360992,0 -20.108795,-2.401245 -22.882416,-5.488586c-1.733521,-3.087341 -0.147263,-6.292175 1.586258,-9.379456z" id="path590"/>
   </g>
  </g>
 </g>
</svg>